<svg width="139" height="65" viewBox="0 0 139 65" fill="none" xmlns="http://www.w3.org/2000/svg">
<path d="M2.97394 36.6146C6.9027 36.6146 18.2935 35.7444 53.3691 34.8611C75.5479 34.3026 101.668 30.049 128.583 28.4867C133.03 28.2286 135.208 27.8341 135.458 26.9574C138.218 17.2982 112.479 10.2733 101.015 4.99317C97.9713 3.59104 94.0214 2.36299 94.3971 3.43089C99.624 18.2862 115.432 19.4492 124.015 23.6351C128.005 25.5812 131.714 28.256 134.792 31.3147C136.472 32.9833 135.26 36.9837 134.166 39.4293C125.623 46.7002 115.933 52.857 111.991 56.1464C109.789 57.6955 107.179 59.0007 101.853 61.6638" stroke="white" stroke-width="5" stroke-linecap="round"/>
</svg>
