<svg width="65" height="139" viewBox="0 0 65 139" fill="none" xmlns="http://www.w3.org/2000/svg">
<path d="M28.1627 3C28.1627 6.92876 29.0328 18.3196 29.9161 53.3952C30.4746 75.5739 34.7282 101.694 36.2905 128.609C36.5486 133.056 36.9431 135.234 37.8198 135.484C47.479 138.244 54.5039 112.505 59.7841 101.041C61.1862 97.9974 62.4142 94.0475 61.3463 94.4232C46.491 99.6501 45.328 115.458 41.1421 124.041C39.196 128.031 36.5212 131.74 33.4626 134.818C31.7939 136.498 27.7935 135.286 25.3479 134.192C18.077 125.649 11.9202 115.959 8.63084 112.017C7.08174 109.815 5.77654 107.205 3.11343 101.879" stroke="black" stroke-width="5" stroke-linecap="round"/>
</svg>
