<svg width="65" height="139" viewBox="0 0 65 139" fill="none" xmlns="http://www.w3.org/2000/svg">
<path d="M28.0492 3C28.0492 6.92876 28.9194 18.3196 29.8027 53.3952C30.3612 75.5739 34.6148 101.694 36.1771 128.609C36.4352 133.056 36.8296 135.234 37.7064 135.484C47.3656 138.244 54.3905 112.505 59.6706 101.041C61.0727 97.9974 62.3008 94.0475 61.2329 94.4232C46.3775 99.6501 45.2146 115.458 41.0287 124.041C39.0826 128.031 36.4078 131.74 33.3491 134.818C31.6805 136.498 27.6801 135.286 25.2345 134.192C17.9636 125.649 11.8068 115.959 8.5174 112.017C6.96831 109.815 5.66311 107.205 3 101.879" stroke="white" stroke-width="5" stroke-linecap="round"/>
</svg>
