<svg width="139" height="65" viewBox="0 0 139 65" fill="none" xmlns="http://www.w3.org/2000/svg">
<path d="M3 36.8373C6.92876 36.8373 18.3196 35.9672 53.3952 35.0839C75.5739 34.5254 101.694 30.2718 128.609 28.7095C133.056 28.4514 135.234 28.0569 135.484 27.1802C138.244 17.521 112.505 10.4961 101.041 5.21594C97.9974 3.81382 94.0475 2.58577 94.4232 3.65367C99.6501 18.509 115.458 19.672 124.041 23.8579C128.031 25.804 131.74 28.4788 134.818 31.5374C136.498 33.2061 135.286 37.2065 134.192 39.6521C125.649 46.923 115.959 53.0798 112.017 56.3692C109.815 57.9183 107.205 59.2235 101.879 61.8866" stroke="black" stroke-width="5" stroke-linecap="round"/>
</svg>
