<svg width="263" height="225" viewBox="0 0 263 225" fill="none" xmlns="http://www.w3.org/2000/svg">
<path d="M59.6613 222C56.9774 218.56 44.9702 197.819 31.4496 175.859C28.9714 171.833 26.0817 169.928 26.3743 168.177C29.0071 152.421 63.6166 155.336 77.7729 153.543C95.0545 151.355 93.2813 177.495 93.9674 184.426C94.3174 187.962 90.6579 191.357 87.6208 193.473C81.8826 197.47 73.8277 196.985 66.4418 195.954C62.9393 195.464 60.3878 192.858 58.6826 189.731C56.9774 186.604 56.3114 182.477 57.6332 177.943C60.5676 167.878 69.7109 160.881 78.0958 156.368C93.5739 148.037 110.031 154.586 124.853 158.057C133.948 160.186 141.693 165.696 148.403 170.543C155.793 175.881 159.876 185.124 159.563 191.388C159.236 197.923 145.124 187.959 138.081 183.478C117.013 170.071 117.538 148.416 104.451 131.385C93.0029 116.487 69.1863 115.021 53.3247 110.143C49.7057 109.03 45.6159 109.435 42.5587 110.81C36.6513 113.469 32.7814 119.836 29.0784 124.683C27.2895 127.024 28.7051 130.905 31.0459 133.021C43.6851 144.445 74.312 131.03 89.2251 120.941C92.2779 118.876 92.5952 113.687 91.9494 108.465C89.2307 86.4808 75.8457 75.4564 63.4148 66.0343C48.4588 54.6983 28.7858 49.0244 17.9895 39.9879C15.3648 37.7911 14.6194 33.7656 15.9311 30.6179C31.4418 -6.60231 114.753 5.2073 128.556 3.47712C132.258 3.01311 136.265 3.12274 137.657 5.18644C139.05 7.25014 137.718 11.3775 135.367 14.1917C125.923 25.4957 104.824 24.6352 69.5798 42.9897C25.6822 65.8504 9.25153 64.2624 5.5283 66.3366C-8.00607 73.8763 36.0506 70.5369 60.5593 68.7963C91.5636 66.5944 111.363 60.8229 167.746 60.4373C179.412 60.3575 182.033 63.5329 184.404 66.3157C194.663 78.356 196.2 96.8439 198.894 113.197C201.364 128.195 202.94 142.725 200.609 152.105C196.735 167.697 174.728 157.379 167.009 156.347C159.409 155.331 152.53 143.559 147.475 130.374C145.435 125.052 148.413 121.316 152.439 118.857C172.668 106.497 196.119 102.514 215.643 99.0222C221.004 98.0636 227.035 97.636 230.455 95.5619C233.876 93.4878 234.542 90.0483 234.219 86.5567C232.511 68.0862 217.106 45.6058 210.366 29.5861C208.564 25.3026 205.684 20.5912 203.646 19.8304C201.608 19.0695 200.276 22.509 200.922 26.3446C203.762 43.2142 218.357 51.0256 229.133 61.4483C240.607 72.5454 249.314 87.1299 256.397 104.828C268.376 134.759 247.376 153.794 238.628 176.744C233.467 190.284 227.176 200.425 222.151 205.98C205.293 224.618 163.992 210.869 132.421 209.17C116.402 208.308 132.309 152.835 126.952 126.163C123.093 106.953 130.897 66.5763 136.335 44.8657C138.05 38.0228 141.027 30.9514 147.727 24.7082C151.763 21.9045 157.091 19.8408 161.5 17.7458C165.909 15.6509 169.239 13.5872 178.724 9.37638" stroke="white" stroke-width="5" stroke-linecap="round"/>
</svg>
