<svg width="279" height="242" viewBox="0 0 279 242" fill="none" xmlns="http://www.w3.org/2000/svg">
<path d="M3 54.4169C5.17536 52.2284 13.9426 47.8513 28.8733 39.0709C32.17 37.1322 33.2964 35.1158 33.3162 35.9595C29.8159 46.0452 27.1791 56.5527 24.7665 66.6844C23.6723 69.3278 21.932 72.3733 17.5023 78.1478" stroke="black" stroke-width="5" stroke-linecap="round"/>
<path d="M4.31842 76.8294C5.18858 76.8294 13.9031 76.3944 27.7329 75.5176C35.9068 74.6409 42.947 73.3225 52.1493 72.0042C57.001 71.5559 62.2218 71.5559 67.6007 71.5559" stroke="black" stroke-width="5" stroke-linecap="round"/>
<path d="M100.56 68.919C102.736 66.2954 153.269 55.8143 187.962 51.5625C191.067 51.345 193.243 50.9099 202.194 50.6858C211.146 50.4617 226.809 50.4617 242.946 50.4617" stroke="black" stroke-width="5" stroke-linecap="round"/>
<path d="M132.202 37.2779C136.13 36.8428 151.872 35.9595 169.914 33.5535C186.492 32.4526 200.283 31.1342 209.254 29.5983C214.745 28.9325 222.142 28.4975 232.398 26.7308" stroke="black" stroke-width="5" stroke-linecap="round"/>
<path d="M109.789 10.9103C124.594 11.3454 178.081 10.4884 200.276 7.40339C205.108 6.95515 210.395 6.52008 218.272 5.64335C223.104 5.20169 229.63 4.76663 237.672 3" stroke="black" stroke-width="5" stroke-linecap="round"/>
<path d="M14.8654 116.381C20.5477 116.381 34.562 115.511 48.4446 116.15C50.7339 116.256 50.4617 119.413 49.1565 121.839C42.1598 134.843 25.017 136.157 19.5128 137.027C18.0855 137.252 20.5345 139.637 23.3954 140.751C26.2563 141.865 29.7368 142.3 38.0558 142.524C46.3748 142.749 59.4268 142.749 72.8743 142.749" stroke="black" stroke-width="5" stroke-linecap="round"/>
<path d="M99.2419 120.336C118.398 120.336 159.835 118.596 176.519 117.482C184.858 116.829 193.678 116.381 205.062 115.728C211.66 115.076 219.927 113.77 233.717 112.426" stroke="black" stroke-width="5" stroke-linecap="round"/>
<path d="M113.744 130.883C114.614 130.883 125.069 130.883 153.065 129.36C196.723 124.792 226.65 121.654 233.012 121.437C235.892 121.219 238.068 120.784 240.309 120.336" stroke="black" stroke-width="5" stroke-linecap="round"/>
<path d="M97.9236 153.296C98.7937 153.296 119.255 152.86 154.581 151.549C179.901 149.367 198.042 148.022 210.995 147.804C216.117 147.587 218.292 147.152 224.488 146.704" stroke="black" stroke-width="5" stroke-linecap="round"/>
<path d="M13.5471 192.847C14.4172 192.847 27.9174 192.847 46.823 193.717C52.7347 193.989 50.9364 196.328 48.0821 198.094C45.2278 199.861 41.3122 201.601 41.2529 204.455C41.091 212.245 50.0135 217.435 50.2443 221.818C41.7077 229.313 32.0308 232.385 25.9003 235.015C22.3802 236.34 18.0296 237.646 13.5471 238.99" stroke="black" stroke-width="5" stroke-linecap="round"/>
<path d="M108.471 206.031C109.341 206.031 121.536 204.291 148.253 201.219C163.223 199.887 181.061 199.017 192.208 198.134C203.355 197.25 207.27 196.38 212.623 195.484" stroke="black" stroke-width="5" stroke-linecap="round"/>
<path d="M122.973 227.125C123.843 227.125 155.181 227.125 203.071 226.907C220.072 226.69 222.247 226.255 224.455 226.031C226.663 225.807 228.839 225.807 236.354 224.488" stroke="black" stroke-width="5" stroke-linecap="round"/>
<path d="M232.225 17.0386C233.37 19.3177 236.841 27.8207 239.53 30.3253C240.868 31.5709 242.984 31.6847 245.303 30.736C247.623 29.7874 250.295 27.4968 255.489 24.4079C260.684 21.3191 268.319 17.5014 276.186 13.568" stroke="#3ACD00" stroke-width="4" stroke-linecap="round"/>
</svg>
