<svg width="496" height="220" viewBox="0 0 496 220" fill="none" xmlns="http://www.w3.org/2000/svg">
<path d="M288.502 38.8324C282.544 38.8324 268.789 37.4706 264.046 32.4926C261.868 30.2079 262.745 25.7814 263.17 22.351C264.086 14.959 271.296 10.9972 278.315 6.69499C286.257 1.82725 293.911 1.01032 304.06 1.00001C311.652 0.992288 317.66 8.19095 323.541 14.3915C329.339 20.5042 329.714 29.5059 330.427 38.9614C331.004 46.6233 330.006 52.9151 328.439 56.686C324.758 65.5444 316.87 67.6994 306.588 69.608C295.077 71.7449 285.66 69.1025 282.089 67.5601C277.066 63.263 273.065 57.7744 270.764 49.0256C270.472 45.0845 270.472 38.9562 270.472 32.6422" stroke="black" stroke-width="2" stroke-linecap="round"/>
<path d="M300.522 72.8785C297.964 73.2189 290.546 75.9529 284.802 80.7658C276.77 87.4954 275.915 101.704 274.911 119.542C274.765 128.776 274.765 144.437 275.048 153.356C275.332 162.275 275.898 163.978 276.482 169.858" stroke="black" stroke-width="2" stroke-linecap="round"/>
<path d="M298.805 73.9102C301.364 74.9315 312.182 85.1763 319.819 92.8057C327.829 100.808 337.098 119.202 342.297 133.522C345.781 143.12 342.601 152.639 340.888 156.931C339.176 160.201 336.033 163.647 332.032 167.253C330.298 168.816 329.165 169.838 327.997 170.89" stroke="black" stroke-width="2" stroke-linecap="round"/>
<path d="M344.31 126.527C344.593 123.452 346.869 116.581 351.445 107.306C356.409 97.2443 363.182 88.4159 366.62 79.9559C369.883 71.9291 371.493 62.9535 373.351 52.456C374.226 47.5147 374.36 42.2989 374.502 37.321C374.566 35.0616 374.927 33.3644 369.69 32.4875C353.686 31.6105 340.893 31.2701 337.042 30.2435C334.891 29.5574 332.341 28.536 327.138 25.4203" stroke="black" stroke-width="2" stroke-linecap="round"/>
<path d="M273.906 145.097C271.348 142.374 265.63 132.758 260.341 122.111C246.11 93.463 237.279 68.793 233.995 60.6993C231.293 54.0389 230.411 48.4788 230.544 45.0484C230.928 35.1524 244.955 35.4072 250.849 31.626C256.434 27.8345 260.727 25.4306 263.44 23.3724C264.737 22.3355 265.87 21.3142 267.896 19.2301" stroke="black" stroke-width="2" stroke-linecap="round"/>
<path d="M110.776 172.953C119.92 173.634 124.779 175.357 142.518 175.533C158.273 175.688 187.739 174.687 207.31 173.485C226.882 172.283 235.665 170.58 269.09 169.703C302.514 168.827 360.314 168.827 390.798 168.656C421.282 168.486 422.698 168.146 431.645 167.97C440.591 167.795 457.025 167.795 473.956 167.795" stroke="black" stroke-width="2" stroke-linecap="round"/>
<path d="M115.927 170.89C113.652 171.23 105.676 175.326 97.4935 179.303C91.3762 182.277 83.0608 187.026 70.753 194.077C59.8227 200.34 40.7327 205.266 32.0997 207.335C22.7619 209.572 14.9409 213.169 2.21243 216.96C-0.51707 217.774 -1.95597 217.997 36.2724 218.173C74.5007 218.348 152.417 218.348 194.822 218.008C237.228 217.667 241.761 216.986 245.371 216.635C248.982 216.285 251.532 216.285 254.159 216.285" stroke="black" stroke-width="2" stroke-linecap="round"/>
<path d="M253.3 218.348C268.635 218.348 295.062 218.008 316.346 217.492C335.36 217.031 371.063 217.316 390.588 216.976C416.468 216.525 424.398 212.179 437.985 208.903C448.065 206.473 458.707 202.212 467.486 197.559C478.277 191.84 483.658 189.13 488.534 185.349C490.933 183.489 493.403 181.558 494.557 180.015C494.296 179.154 492.312 178.132 486.049 177.606C479.786 177.08 469.302 177.08 458.501 177.08" stroke="black" stroke-width="2" stroke-linecap="round"/>
</svg>
