<svg width="82" height="17" viewBox="0 0 82 17" fill="none" xmlns="http://www.w3.org/2000/svg">
<path d="M8 2C8 2.17434 8 3.04868 8.11 4.9783C8.44001 7.60528 8.88668 9.91661 9.27501 11.7155C9.44335 12.7298 9.55335 13.9502 10 16" stroke="#919191" stroke-linecap="round"/>
<path d="M41 1C41 1.17434 41 2.04868 41.055 3.9783C41.22 6.60528 41.4433 8.91661 41.6375 10.7155C41.7217 11.7298 41.7767 12.9502 42 15" stroke="#919191" stroke-linecap="round"/>
<path d="M72 2C72 2.16189 72 2.97378 72.11 4.76557C72.44 7.20491 72.8867 9.35113 73.275 11.0215C73.4433 11.9634 73.5534 13.0966 74 15" stroke="#919191" stroke-linecap="round"/>
<path d="M1 10C1.17899 10 5.47729 10 12.0739 10C14.4644 10 14.9119 10 15.3661 10C15.8203 10 16.2678 10 17 10" stroke="#919191" stroke-linecap="round"/>
<path d="M33 8C33.179 8 37.4773 8 44.0739 7.9175C46.4644 7.835 46.9119 7.67 47.3661 7.5025C47.8203 7.335 48.2678 7.17 49 7" stroke="#919191" stroke-linecap="round"/>
<path d="M65 9C65.179 9 69.4773 9 76.0739 8.9175C78.4644 8.835 78.9119 8.67 79.3661 8.5025C79.8203 8.335 80.2678 8.17 81 8" stroke="#919191" stroke-linecap="round"/>
<path d="M14 3C13.725 4.16729 12.25 7.04625 8.1361 11.7398C7.24443 12.7446 6.87777 13.2808 6.36805 13.8699C5.85833 14.459 5.21666 15.0846 4 16" stroke="#919191" stroke-linecap="round"/>
<path d="M44 4C43.78 4.98771 42.6 7.42375 39.3089 11.3952C38.5955 12.2454 38.3022 12.6992 37.8944 13.1976C37.4867 13.696 36.9733 14.2254 36 15" stroke="#919191" stroke-linecap="round"/>
<path d="M76 3C75.78 4.0775 74.6 6.735 71.3089 11.0675C70.5955 11.995 70.3022 12.49 69.8944 13.0337C69.4867 13.5775 68.9733 14.155 68 15" stroke="#919191" stroke-linecap="round"/>
<path d="M3 5C3.38212 5.16923 3.96106 5.67949 5.01763 6.70128C6.64737 8.06154 8.20474 9.52308 9.69408 11.141C10.6103 12.0821 11.8521 13.2667 14 15" stroke="#919191" stroke-linecap="round"/>
<path d="M36 4C36.3474 4.18616 36.8737 4.74744 37.8342 5.87141C39.3158 7.36769 40.7316 8.97538 42.0855 10.7551C42.9184 11.7903 44.0474 13.0933 46 15" stroke="#919191" stroke-linecap="round"/>
<path d="M68 5C68.3474 5.16923 68.8737 5.67949 69.8342 6.70128C71.3158 8.06154 72.7316 9.52308 74.0855 11.141C74.9184 12.0821 76.0474 13.2667 78 15" stroke="#919191" stroke-linecap="round"/>
</svg>
