<svg width="140" height="24" viewBox="0 0 140 24" fill="none" xmlns="http://www.w3.org/2000/svg">
<path d="M16.5153 21.8712C37.3114 21.3008 58.1074 20.7304 74.9032 20.1921C91.6989 19.6538 103.864 19.1649 112.638 18.4649C121.412 17.7648 126.426 16.8685 129.502 16.2031C135.412 14.9248 137.725 12.498 138.856 10.8485C139.509 9.8959 137.827 8.37932 136.213 7.18791C134.535 5.94963 131.117 5.2508 122.781 3.85693C116.694 2.83916 106.719 1.97414 93.3342 1.42845C79.9496 0.882747 63.4279 0.882747 50.6424 1.29017C37.8569 1.69759 29.3083 2.51243 24.4935 3.05443C18.8375 3.69111 15.0507 4.74461 9.82739 6.0175C3.70385 7.50977 1.99369 10.1769 1.15677 11.8226C0.671439 12.777 1.40087 14.2092 2.14563 15.4833C2.48957 16.0717 3.05479 16.35 7.29545 17.292C11.5361 18.234 19.5093 19.7822 29.0007 20.9464C38.492 22.1107 49.2599 22.844 57.1908 22.9774C65.1216 23.1107 69.8891 22.6218 73.2082 22.3699C76.5272 22.1181 78.2534 22.1181 80.0318 22.1181" stroke="white" stroke-linecap="round"/>
</svg>
